<svg width="24" height="24" viewBox="0 0 24 24" fill="none" xmlns="http://www.w3.org/2000/svg">
<path d="M6.44954 3.67796C10.4095 1.03796 15.6885 1.55896 19.0695 4.91796C20.9585 6.80896 22.0085 9.36796 21.9986 12.038C21.9795 16.798 18.5985 20.888 13.9285 21.809C9.24854 22.729 4.56954 20.218 2.75854 15.809C0.938537 11.408 2.47954 6.32796 6.44954 3.67796ZM15.4985 8.24796C15.3695 8.18796 15.2185 8.16796 15.0795 8.21796L10.1385 9.77796C9.96854 9.82796 9.83854 9.96796 9.78954 10.138L8.21854 15.078C8.18854 15.178 8.18854 15.288 8.21854 15.388C8.25854 15.528 8.35954 15.648 8.48954 15.718C8.62854 15.798 8.77954 15.809 8.91854 15.768L13.8595 14.208C14.0295 14.158 14.1595 14.028 14.2185 13.858L15.7685 8.91796C15.8095 8.80896 15.8095 8.68796 15.7685 8.57796C15.7295 8.43796 15.6285 8.31796 15.4985 8.24796Z" fill="#2859E9"/>
</svg>
