<svg width="32" height="32" viewBox="0 0 32 32" fill="none" xmlns="http://www.w3.org/2000/svg">
<path d="M26.4587 16.2457C26.4587 15.5206 26.3999 14.7916 26.2745 14.0782H16.2134V18.1858H21.9749C21.7358 19.5105 20.9676 20.6824 19.8428 21.4271V24.0923H23.2801C25.2986 22.2345 26.4587 19.4909 26.4587 16.2457Z" fill="#4285F4"/>
<path d="M16.2136 26.6674C19.0905 26.6674 21.5166 25.7228 23.2843 24.0923L19.8469 21.4271C18.8906 22.0777 17.656 22.4462 16.2176 22.4462C13.4348 22.4462 11.0753 20.5688 10.2287 18.0447H6.68164V20.7922C8.49241 24.3941 12.1806 26.6674 16.2136 26.6674Z" fill="#34A853"/>
<path d="M10.2247 18.0447C9.77787 16.7199 9.77787 15.2854 10.2247 13.9606V11.2131H6.68154C5.16865 14.2272 5.16865 17.7781 6.68154 20.7922L10.2247 18.0447Z" fill="#FBBC04"/>
<path d="M16.2136 9.55523C17.7344 9.53172 19.2041 10.104 20.3055 11.1544L23.3509 8.10897C21.4225 6.29821 18.8632 5.30268 16.2136 5.33403C12.1806 5.33403 8.49241 7.60729 6.68164 11.2131L10.2248 13.9606C11.0675 11.4326 13.4309 9.55523 16.2136 9.55523Z" fill="#EA4335"/>
</svg>
