<svg width="24" height="24" viewBox="0 0 24 24" fill="none" xmlns="http://www.w3.org/2000/svg">
<path d="M10.4217 20.2607H6.42174C5.12562 20.256 4.07474 19.209 4.06522 17.9129V9.95637C4.06776 9.52249 4.26191 9.1119 4.59565 8.83463L5.3 8.31289C5.55714 8.03892 5.58329 7.62087 5.36229 7.317C5.14129 7.01312 4.73552 6.90919 4.39565 7.06941L3.67391 7.60854C2.94588 8.17186 2.51384 9.03595 2.5 9.95637V17.9216C2.50478 20.0855 4.25781 21.8385 6.42174 21.8433H10.4217C10.854 21.8433 11.2043 21.4929 11.2043 21.0607C11.2043 20.6285 10.854 20.2781 10.4217 20.2781V20.2607Z" fill="#051028"/>
<path d="M21.2913 9.93905C21.2822 9.02539 20.8642 8.16388 20.1522 7.59123L14.1435 2.79992C12.8231 1.73857 10.9422 1.73857 9.62176 2.79992L7.71742 4.18253C7.35963 4.43947 7.27787 4.93779 7.53481 5.29558C7.79174 5.65336 8.29007 5.73512 8.64785 5.47819L10.5783 4.03471C11.336 3.41091 12.4293 3.41091 13.187 4.03471L19.1957 8.82601C19.5415 9.10015 19.7458 9.51519 19.7522 9.95645V17.9217C19.7522 19.2183 18.701 20.2695 17.4044 20.2695H15.6218C15.4393 20.2695 15.2913 20.1215 15.2913 19.9391V16.3478C15.2913 15.2033 14.3662 14.2743 13.2218 14.2695H10.6131C10.0619 14.2695 9.53326 14.4884 9.14352 14.8782C8.75377 15.2679 8.53481 15.7966 8.53481 16.3478V17.7217C8.53481 18.1539 8.88519 18.5043 9.31742 18.5043C9.74964 18.5043 10.1 18.1539 10.1 17.7217V16.3478C10.0977 16.2125 10.1498 16.082 10.2446 15.9855C10.3395 15.889 10.4691 15.8347 10.6044 15.8347H13.2131C13.4916 15.8347 13.7174 16.0605 13.7174 16.3391V19.9391C13.7222 20.9874 14.5734 21.8347 15.6218 21.8347H17.3609C19.5268 21.8347 21.2826 20.0789 21.2826 17.913L21.2913 9.93905Z" fill="#051028"/>
</svg>
