<svg width="207" height="29" viewBox="0 0 207 29" fill="none" xmlns="http://www.w3.org/2000/svg">
<path d="M0 4.07218H25.6802V11.3032H0V4.07218ZM9.75355 10.8084H15.9267V28.4291H9.75355V10.8084Z" fill="#051028"/>
<path d="M42.7437 21.731H48.5712C48.423 23.2025 47.9456 24.4838 47.139 25.5748C46.3488 26.6658 45.1883 27.5158 43.6574 28.1247C42.1429 28.7082 40.2086 29 37.8546 29C35.3689 29 33.2206 28.6955 31.4099 28.0866C29.6155 27.4777 28.2328 26.4501 27.2615 25.0039C26.2903 23.5577 25.8047 21.6041 25.8047 19.143C25.8047 16.7073 26.2738 14.7664 27.2121 13.3202C28.1669 11.8486 29.5415 10.7957 31.3358 10.1614C33.1301 9.52712 35.3031 9.20998 37.8546 9.20998C40.3568 9.20998 42.4063 9.55249 44.0031 10.2375C45.5998 10.9226 46.7769 12.0389 47.5341 13.5866C48.2913 15.1089 48.6535 17.1767 48.6206 19.79H31.8296C31.9119 20.4497 32.1424 21.0586 32.521 21.6168C32.9161 22.175 33.517 22.6317 34.3236 22.9869C35.1467 23.3167 36.2414 23.4816 37.6077 23.4816C39.0234 23.4816 40.1839 23.3294 41.0893 23.0249C42.0112 22.7205 42.5627 22.2892 42.7437 21.731ZM37.6077 14.7283C35.8628 14.7283 34.5294 15.0201 33.6075 15.6037C32.7021 16.1872 32.1671 16.7708 32.0025 17.3543H42.8672C42.752 16.6947 42.291 16.0984 41.4844 15.5656C40.6778 15.0074 39.3856 14.7283 37.6077 14.7283Z" fill="#051028"/>
<path d="M73.1684 20.3228C73.1684 22.1496 72.798 23.71 72.0572 25.0039C71.3165 26.2979 70.1477 27.2874 68.5509 27.9724C66.9541 28.6575 64.8799 29 62.3284 29C59.7768 29 57.6039 28.6829 55.8096 28.0486C54.0317 27.4143 52.6736 26.374 51.7353 24.9278C50.8134 23.4816 50.3525 21.5534 50.3525 19.143C50.3525 16.7327 50.8134 14.8045 51.7353 13.3583C52.6736 11.8867 54.0317 10.8338 55.8096 10.1995C57.6039 9.53981 59.7768 9.20998 62.3284 9.20998C64.8799 9.20998 66.9459 9.55249 68.5262 10.2375C70.1065 10.9226 71.2671 11.9121 72.0079 13.206C72.7486 14.5 73.1273 16.0477 73.1437 17.8491H67.7114C67.448 16.8596 66.8553 16.0984 65.9335 15.5656C65.0116 15.0074 63.8099 14.7283 62.3284 14.7283C61.1267 14.7283 60.0814 14.8679 59.1924 15.147C58.3035 15.4007 57.6121 15.8447 57.1183 16.479C56.6409 17.1133 56.4022 18.0013 56.4022 19.143C56.4022 20.2594 56.6409 21.1347 57.1183 21.769C57.5956 22.4033 58.2788 22.8473 59.1677 23.1011C60.0567 23.3548 61.1102 23.4816 62.3284 23.4816C63.8099 23.4816 65.0116 23.2152 65.9335 22.6824C66.8718 22.1242 67.4727 21.3377 67.736 20.3228H73.1684Z" fill="#051028"/>
<path d="M91.8888 28.4291V21.5026C91.8888 20.3609 91.7407 19.3968 91.4444 18.6102C91.148 17.8237 90.6213 17.2402 89.864 16.8596C89.1233 16.4536 88.0697 16.2507 86.7034 16.2507C85.9297 16.2507 85.1724 16.3648 84.4317 16.5932C83.7074 16.7962 83.0489 17.0499 82.4563 17.3543C81.8801 17.6588 81.4192 17.9633 81.0735 18.2677L81.0241 16.4409C81.0899 16.0604 81.3122 15.4895 81.6908 14.7283C82.0859 13.9418 82.6538 13.1299 83.3946 12.2927C84.1354 11.43 85.0654 10.7069 86.1848 10.1234C87.3207 9.51444 88.6623 9.20998 90.2097 9.20998C91.181 9.20998 92.1193 9.34952 93.0247 9.62861C93.9301 9.9077 94.7367 10.3771 95.4445 11.0367C96.1689 11.671 96.745 12.5337 97.173 13.6247C97.601 14.7157 97.815 16.0731 97.815 17.6969V28.4291H91.8888ZM75.3942 28.4291V2.16929H81.3204V28.4291H75.3942Z" fill="#051028"/>
<path d="M99.6623 4.07218H125.343V11.3032H99.6623V4.07218ZM109.416 10.8084H115.589V28.4291H109.416V10.8084Z" fill="#051028"/>
<path d="M137.196 29C134.579 29 132.397 28.6702 130.652 28.0105C128.924 27.3508 127.623 26.2979 126.751 24.8517C125.895 23.4055 125.467 21.5026 125.467 19.143C125.467 16.7835 125.895 14.8806 126.751 13.4344C127.623 11.9628 128.924 10.8972 130.652 10.2375C132.397 9.55249 134.579 9.20998 137.196 9.20998C139.797 9.20998 141.953 9.55249 143.665 10.2375C145.394 10.8972 146.686 11.9628 147.542 13.4344C148.398 14.8806 148.826 16.7835 148.826 19.143C148.826 21.5026 148.398 23.4055 147.542 24.8517C146.686 26.2979 145.394 27.3508 143.665 28.0105C141.953 28.6702 139.797 29 137.196 29ZM137.196 23.4816C138.414 23.4816 139.435 23.3294 140.258 23.0249C141.081 22.6951 141.706 22.213 142.134 21.5787C142.562 20.9191 142.776 20.1072 142.776 19.143C142.776 18.1789 142.562 17.367 142.134 16.7073C141.723 16.0477 141.106 15.5529 140.283 15.2231C139.459 14.8933 138.431 14.7283 137.196 14.7283C135.978 14.7283 134.941 14.8933 134.085 15.2231C133.245 15.5529 132.603 16.0477 132.159 16.7073C131.731 17.3416 131.517 18.1535 131.517 19.143C131.517 20.1072 131.731 20.9191 132.159 21.5787C132.587 22.213 133.22 22.6951 134.06 23.0249C134.916 23.3294 135.961 23.4816 137.196 23.4816Z" fill="#051028"/>
<path d="M150.792 9.78084H156.718V28.4291H150.792V9.78084ZM165.608 9.20998C166.579 9.20998 167.517 9.37489 168.423 9.70473C169.328 10.0092 170.135 10.542 170.843 11.3032C171.567 12.0643 172.143 13.1045 172.571 14.4239C172.999 15.7432 173.213 17.4051 173.213 19.4094V28.4291H167.287V20.5512C167.287 18.6483 166.966 17.3036 166.324 16.5171C165.682 15.7052 164.521 15.2992 162.842 15.2992C161.953 15.2992 161.089 15.4514 160.249 15.7559C159.426 16.0604 158.686 16.4283 158.027 16.8596C157.369 17.2655 156.85 17.6715 156.472 18.0774L156.422 16.6312C156.488 16.1745 156.71 15.5402 157.089 14.7283C157.484 13.8911 158.052 13.0538 158.793 12.2165C159.533 11.3793 160.464 10.6689 161.583 10.0853C162.719 9.50175 164.06 9.20998 165.608 9.20998Z" fill="#051028"/>
<path d="M181.955 0V5.70866H175.683V0H181.955ZM175.856 9.78084H181.783V28.4291H175.856V9.78084Z" fill="#051028"/>
<path d="M207 20.3228C207 22.1496 206.63 23.71 205.889 25.0039C205.148 26.2979 203.979 27.2874 202.382 27.9724C200.786 28.6575 198.712 29 196.16 29C193.608 29 191.435 28.6829 189.641 28.0486C187.863 27.4143 186.505 26.374 185.567 24.9278C184.645 23.4816 184.184 21.5534 184.184 19.143C184.184 16.7327 184.645 14.8045 185.567 13.3583C186.505 11.8867 187.863 10.8338 189.641 10.1995C191.435 9.53981 193.608 9.20998 196.16 9.20998C198.712 9.20998 200.777 9.55249 202.358 10.2375C203.938 10.9226 205.099 11.9121 205.839 13.206C206.58 14.5 206.959 16.0477 206.975 17.8491H201.543C201.28 16.8596 200.687 16.0984 199.765 15.5656C198.843 15.0074 197.642 14.7283 196.16 14.7283C194.958 14.7283 193.913 14.8679 193.024 15.147C192.135 15.4007 191.444 15.8447 190.95 16.479C190.472 17.1133 190.234 18.0013 190.234 19.143C190.234 20.2594 190.472 21.1347 190.95 21.769C191.427 22.4033 192.11 22.8473 192.999 23.1011C193.888 23.3548 194.942 23.4816 196.16 23.4816C197.642 23.4816 198.843 23.2152 199.765 22.6824C200.703 22.1242 201.304 21.3377 201.568 20.3228H207Z" fill="#051028"/>
</svg>
